<?xml version="1.0" encoding="UTF-8"?>
<svg width="258px" height="29px" viewBox="0 0 258 29" version="1.1" xmlns="http://www.w3.org/2000/svg" xmlns:xlink="http://www.w3.org/1999/xlink">
    <!-- Generator: Sketch 48.2 (47327) - http://www.bohemiancoding.com/sketch -->
    <title>logos</title>
    <desc>Created with Sketch.</desc>
    <defs></defs>
    <g id="07-00-landing-page" stroke="none" stroke-width="1" fill="none" fill-rule="evenodd" transform="translate(-384.000000, -619.000000)" fill-opacity="0.300000012">
        <g id="logos" transform="translate(364.000000, 603.000000)" fill="#000000">
            <path d="M40.9297466,34.8534694 C40.3575439,36.1212433 40.084023,36.6861412 39.3470584,37.8061975 C38.3203401,39.3702182 36.8715716,41.3181421 35.076235,41.3343748 C33.4813722,41.3489843 33.0714966,40.2971053 30.906866,40.3092798 C28.7422355,40.3214544 28.2909664,41.3538541 26.6961036,41.338433 C24.900767,41.3222003 23.5291039,39.5633873 22.501574,37.998555 C19.6283861,33.6254656 19.3280811,28.4926859 21.0998803,25.7647807 C22.3595379,23.824973 24.3464203,22.6911189 26.2148041,22.6911189 C28.1164649,22.6911189 29.3128149,23.7340699 30.8857635,23.7340699 C32.4116373,23.7340699 33.3409594,22.6894957 35.5404902,22.6894957 C37.2027187,22.6894957 38.9639667,23.5944687 40.219566,25.1584893 C36.1078231,27.4123997 36.7757987,33.2829557 40.9297466,34.8534694 Z M34.1047079,19.9526624 C33.248433,21.0516162 31.7736922,21.9022097 30.3492728,21.8575698 C30.0895496,20.4412667 30.7575252,18.9843819 31.5667253,18.0023035 C32.4587121,16.9195825 33.9845859,16.0892798 35.289695,16 C35.5104597,17.4796106 34.9041684,18.9275674 34.1047079,19.9526624 Z" id="" fill-rule="nonzero"></path>
            <path d="M78,19 L88,19 L88,29 L78,29 L78,19 Z M90,19 L100,19 L100,29 L90,29 L90,19 Z M78,31 L88,31 L88,41 L78,41 L78,31 Z M90,31 L100,31 L100,41 L90,41 L90,31 Z" id="microsoft" fill-rule="nonzero"></path>
            <path d="M158.966677,17.8969246 C160.943267,20.3396568 162.031191,23.421464 162.031191,26.574767 C162.031191,29.7293605 160.938105,32.8160717 158.954546,35.2652567 L160.060022,36.1614069 C162.249292,33.4590183 163.457237,30.0556088 163.457237,26.574767 C163.457237,23.0977968 162.254971,19.6974846 160.073702,17 L158.966677,17.8969246 M141.800702,26.574767 C141.800702,30.1185871 144.683766,33.0031999 148.22836,33.0031999 C151.773213,33.0031999 154.655761,30.1185871 154.655761,26.574767 C154.655761,23.0283658 151.773213,20.1447854 148.22836,20.1447854 C144.683766,20.1447854 141.800702,23.0283658 141.800702,26.574767 Z M143.16093,26.574767 C143.16093,23.7802338 145.435376,21.508369 148.22836,21.508369 C151.021087,21.508369 153.292693,23.7802338 153.292693,26.574767 C153.292693,29.3685258 151.021087,31.6396164 148.22836,31.6396164 C145.435376,31.6396164 143.16093,29.3685258 143.16093,26.574767 Z M136.59028,44.2672824 L135.878934,44.2672824 L135.489192,43.0492717 L134.136191,43.0492717 L133.766064,44.2672824 L133.074077,44.2672824 L134.413398,40.1047779 L135.241666,40.1047779 L136.59028,44.2672824 M135.374334,42.5392507 L134.255178,42.5392507 L134.600526,41.4466804 C134.691639,41.0995254 134.756165,40.8378041 134.799528,40.6602259 L134.811659,40.6602259 C134.913611,41.0742308 134.984075,41.3372427 135.0215,41.4466804 L135.374334,42.5392507 Z M139.605753,44.2672824 L139.018558,44.2672824 L138.982165,43.81611 L138.971582,43.81611 C138.758385,44.1604258 138.443235,44.3328418 138.016841,44.3328418 C137.718985,44.3328418 137.485139,44.2430203 137.307561,44.0636354 C137.095396,43.8346938 136.991379,43.4908942 136.991379,43.0353339 L136.991379,41.263682 L137.659878,41.263682 L137.659878,42.9217665 C137.659878,43.4988955 137.859654,43.7890087 138.250687,43.7890087 C138.545704,43.7890087 138.751932,43.6416291 138.86679,43.3543551 C138.89544,43.2813106 138.910152,43.1966513 138.910152,43.1003771 L138.910152,41.263682 L139.579168,41.263682 L139.579168,43.4062348 C139.579168,43.6901534 139.587685,43.9779436 139.605753,44.2672824 Z M143.10905,44.2672824 L142.514628,44.2672824 L142.483397,43.7908154 L142.466104,43.7908154 C142.276136,44.1539731 141.954018,44.3328418 141.501297,44.3328418 C141.138913,44.3328418 140.836927,44.1911406 140.598436,43.9092869 C140.357621,43.6261427 140.238117,43.2616944 140.238117,42.8048436 C140.238117,42.3198591 140.369494,41.9277933 140.629667,41.627614 C140.884419,41.3470508 141.194406,41.2058658 141.562984,41.2058658 C141.96873,41.2058658 142.252907,41.3444697 142.414224,41.615741 L142.414224,39.8926133 L143.084788,39.8926133 L143.084788,43.4622442 C143.084788,43.7551966 143.091241,44.0249192 143.10905,44.2672824 M142.414224,43.006942 L142.414224,42.5069872 C142.414224,42.4197468 142.408287,42.3490253 142.395124,42.2955969 C142.358989,42.1363444 142.279234,41.9992892 142.154051,41.8919163 C142.029643,41.78093 141.882522,41.7254368 141.709073,41.7254368 C141.461548,41.7254368 141.263837,41.8253245 141.123169,42.0235513 C140.979661,42.2220362 140.910488,42.4767886 140.910488,42.784195 C140.910488,43.0794703 140.97708,43.3241565 141.113103,43.5076712 C141.256869,43.7051236 141.452514,43.8055276 141.697975,43.8055276 C141.915302,43.8055276 142.089008,43.7224169 142.22374,43.5569698 C142.350213,43.4036537 142.414224,43.2216877 142.414224,43.006942 M144.661052,40.3664992 C144.661052,40.4878099 144.621304,40.583826 144.543097,40.6568705 C144.465665,40.7330123 144.363196,40.768115 144.239304,40.768115 C144.128318,40.768115 144.035141,40.7319799 143.956934,40.653257 C143.881825,40.5786638 143.842076,40.4823896 143.842076,40.3664992 C143.842076,40.2539642 143.881825,40.1566576 143.959515,40.0830969 C144.037464,40.0085037 144.136319,39.9721105 144.25221,39.9721105 C144.368358,39.9721105 144.465665,40.0085037 144.543097,40.0830969 C144.621304,40.1566576 144.661052,40.2539642 144.661052,40.3664992 Z M143.91796,44.2672824 L144.586459,44.2672824 L144.586459,41.263682 L143.91796,41.263682 L143.91796,44.2672824 Z M148.176222,42.7457369 C148.176222,43.2072337 148.045878,43.5871684 147.781576,43.8837342 C147.505917,44.1831393 147.138887,44.3328418 146.681262,44.3328418 C146.238607,44.3328418 145.887581,44.1875271 145.625601,43.8971558 C145.365429,43.6067846 145.234826,43.2413039 145.234826,42.7927126 C145.234826,42.3304415 145.36801,41.9484419 145.63799,41.6508437 C145.908745,41.3566008 146.272419,41.2058658 146.730044,41.2058658 C147.171667,41.2058658 147.525017,41.3550521 147.795255,41.646972 C148.04975,41.9290839 148.176222,42.2955969 148.176222,42.7457369 M147.485268,42.7635464 C147.485268,43.0397217 147.422806,43.2807944 147.298656,43.480828 C147.15489,43.7234493 146.955889,43.8468248 146.700362,43.8468248 C146.438641,43.8468248 146.236026,43.7247398 146.093809,43.4870226 C145.973272,43.2908606 145.913908,43.0508204 145.913908,42.7756775 C145.913908,42.4938237 145.973272,42.2509443 146.093809,42.0522013 C146.233445,41.8131935 146.437092,41.6926571 146.70475,41.6926571 C146.965439,41.6926571 147.165472,41.8131935 147.305109,42.0522013 C147.425129,42.2509443 147.485268,42.4876291 147.485268,42.7635464 Z M153.410132,42.5235061 C153.410132,43.1359959 153.26043,43.5992994 152.963864,43.9059315 C152.692335,44.1901082 152.308528,44.3328418 151.812961,44.3328418 C150.797823,44.3328418 150.291674,43.7335155 150.291674,42.5356372 L150.291674,40.1047779 L150.962238,40.1047779 L150.962238,42.5704818 C150.962238,42.9793245 151.0438,43.2908606 151.207699,43.4988955 C151.357401,43.6955737 151.56492,43.79701 151.838256,43.79701 C152.439131,43.79701 152.739568,43.3881673 152.739568,42.5704818 L152.739568,40.1047779 L153.410132,40.1047779 L153.410132,42.5235061 Z M156.852774,44.2672824 L156.182468,44.2672824 L156.182468,42.5493169 C156.182468,42.0158081 155.981661,41.7507314 155.57798,41.7507314 C155.379237,41.7507314 155.217403,41.8253245 155.092221,41.9714135 C154.969362,42.1182769 154.907932,42.2906929 154.907932,42.4876291 L154.907932,44.2672824 L154.236852,44.2672824 L154.236852,42.1247296 C154.236852,41.8606853 154.22885,41.5757343 154.214138,41.263682 L154.801334,41.263682 L154.832823,41.7290503 L154.851923,41.7290503 C154.93142,41.589414 155.04602,41.467329 155.198303,41.3731197 C155.381302,41.2621333 155.582884,41.2058658 155.806405,41.2058658 C156.085936,41.2058658 156.319524,41.2969779 156.505619,41.4784276 C156.736884,41.6998841 156.852774,42.0320689 156.852774,42.4757562 L156.852774,44.2672824 Z M158.36606,40.3664992 C158.36606,40.4878099 158.328377,40.583826 158.249138,40.6568705 C158.170673,40.7330123 158.068204,40.768115 157.943796,40.768115 C157.83281,40.768115 157.738084,40.7319799 157.660394,40.653257 C157.5858,40.5786638 157.547084,40.4823896 157.547084,40.3664992 C157.547084,40.2539642 157.586833,40.1566576 157.664007,40.0830969 C157.743504,40.0085037 157.840295,39.9721105 157.956443,39.9721105 C158.07285,39.9721105 158.170673,40.0085037 158.249138,40.0830969 C158.328377,40.1566576 158.36606,40.2539642 158.36606,40.3664992 Z M157.621161,44.2672824 L157.621161,41.263682 L158.2925,41.263682 L158.2925,44.2672824 L157.621161,44.2672824 Z M160.647217,41.7677665 L159.909287,41.7677665 L159.909287,43.2253012 C159.909287,43.5949116 160.038857,43.7786844 160.299546,43.7786844 C160.418534,43.7786844 160.517131,43.7727479 160.596886,43.7536479 L160.615986,44.2587649 C160.483577,44.3010946 160.309096,44.3253567 160.096415,44.3253567 C159.83108,44.3253567 159.626401,44.2466338 159.477731,44.0899624 C159.326996,43.9276126 159.254984,43.6594386 159.254984,43.284666 L159.254984,41.7677665 L158.815942,41.7677665 L158.815942,41.263682 L159.254984,41.263682 L159.254984,40.7183002 L159.909287,40.521622 L159.909287,41.263682 L160.647217,41.263682 L160.647217,41.7677665 Z M163.064139,43.4036537 C163.064139,43.6849912 162.960121,43.9069639 162.753893,44.0757664 C162.548439,44.2430203 162.263488,44.3253567 161.901621,44.3253567 C161.558338,44.3253567 161.26745,44.2603135 161.028442,44.1312596 L161.170144,43.634144 C161.402441,43.775329 161.645062,43.8468248 161.906525,43.8468248 C162.246453,43.8468248 162.417837,43.7188034 162.417837,43.466632 C162.417837,43.3579687 162.379379,43.2665985 162.30685,43.1951026 C162.23329,43.1205095 162.101655,43.0492717 161.911687,42.9819056 C161.378178,42.7816139 161.111553,42.4948562 161.111553,42.1136309 C161.111553,41.8544907 161.208343,41.639745 161.407603,41.4639736 C161.605055,41.29259 161.865744,41.2058658 162.19096,41.2058658 C162.488816,41.2058658 162.74202,41.266263 162.951087,41.3862832 L162.809386,41.8606853 C162.618903,41.7432462 162.414223,41.6856882 162.20051,41.6856882 C162.060874,41.6856882 161.949887,41.7169193 161.871939,41.7845435 C161.794764,41.8521677 161.75579,41.9363109 161.75579,42.0385216 C161.75579,42.1438296 161.799152,42.2261659 161.878908,42.2906929 C161.948339,42.3536712 162.085136,42.4236184 162.286202,42.4974372 C162.803966,42.6938573 163.064139,42.9973921 163.064139,43.4036537 Z M138.410198,26.574767 C138.410198,24.3287129 139.188393,22.1335061 140.598436,20.3917946 L141.704427,21.2889773 C140.496225,22.7756783 139.83263,24.6534125 139.83263,26.574767 C139.83263,28.4979282 140.498548,30.3766949 141.710622,31.8649445 L140.605663,32.7641921 C139.189941,31.0229968 138.410198,28.8221116 138.410198,26.574767 Z M135.69129,26.574767 C135.69129,23.7092542 136.679585,20.9095589 138.475241,18.6882831 L139.581749,19.5841753 C137.987675,21.5522473 137.110883,24.0339538 137.110883,26.574767 C137.110883,29.1145478 137.991289,31.5972867 139.586653,33.5676816 L138.483242,34.4635738 C136.68294,32.2399751 135.69129,29.4395055 135.69129,26.574767 Z M133,26.574767 C133,23.0977968 134.202266,19.6974846 136.383535,17 L137.49056,17.8969246 C135.513454,20.3396568 134.423981,23.421464 134.423981,26.574767 C134.423981,29.7293605 135.519132,32.8160717 137.503207,35.2652567 L136.396182,36.1614069 C134.20717,33.4590183 133,30.0556088 133,26.574767 Z M154.7541,21.2889773 L155.858801,20.3917946 C157.270135,22.1335061 158.048072,24.3287129 158.048072,26.574767 C158.048072,28.8221116 157.267295,31.0229968 155.849509,32.7641921 L154.746098,31.8649445 C155.955592,30.3766949 156.622542,28.4979282 156.622542,26.574767 C156.622542,24.6534125 155.958947,22.7756783 154.7541,21.2889773 Z M156.875488,19.5841753 L157.980447,18.6882831 C159.775587,20.9095589 160.766721,23.7092542 160.766721,26.574767 C160.766721,29.4395055 159.775587,32.2399751 157.974511,34.4635738 L156.868519,33.5676816 C158.464916,31.5972867 159.344289,29.1145478 159.344289,26.574767 C159.344289,24.0339538 158.466464,21.5522473 156.875488,19.5841753 Z" id="audio-units"></path>
            <path d="M256,18 L276,18 C277.104569,18 278,18.8954305 278,20 L278,40 C278,41.1045695 277.104569,42 276,42 L256,42 C254.895431,42 254,41.1045695 254,40 L254,20 C254,18.8954305 254.895431,18 256,18 Z M261.163437,33.6 L260.591562,31.8703125 L258.1025,31.8703125 L257.52125,33.6 L256.297812,33.6 L258.697812,26.8359375 L260.057187,26.8359375 L262.461875,33.6 L261.163437,33.6 Z M259.311875,28.125 L258.38375,30.9140625 L260.310312,30.9140625 L259.391562,28.125 L259.311875,28.125 Z M267.568437,33.6 L266.996562,31.8703125 L264.5075,31.8703125 L263.92625,33.6 L262.702812,33.6 L265.102812,26.8359375 L266.462187,26.8359375 L268.866875,33.6 L267.568437,33.6 Z M265.716875,28.125 L264.78875,30.9140625 L266.715312,30.9140625 L265.796562,28.125 L265.716875,28.125 Z M269.192187,33.6 L271.404688,30.1921875 L269.210938,26.8359375 L270.640625,26.8359375 L272.182813,29.3203125 L272.2625,29.3203125 L273.828125,26.8359375 L275.1875,26.8359375 L272.91875,30.2203125 L275.15,33.6 L273.753125,33.6 L272.182813,31.171875 L272.103125,31.171875 L270.509375,33.6 L269.192187,33.6 Z" id="aax"></path>
            <path d="M200.979807,25.5923073 C201.240347,24.8686664 201.795958,24.1579533 202.646986,23.4894426 C203.873311,22.5257162 205.713577,22 208.254452,22 C209.568483,22 210.795327,22.1754117 211.933947,22.4380103 C213.160791,22.613422 213.861918,22.7888337 214.036811,22.7888337 C214.387635,22.7888337 214.650233,22.7011279 214.825645,22.613422 C215.000538,22.4380103 215.088243,22.2631176 215.175949,22 L216.227382,22 L216.227382,25.3297087 L228.84405,25.3297087 L228.84405,29.0092028 L228.142923,29.0092028 C227.880324,27.6951719 227.179196,26.8191513 226.040577,26.380622 C225.339449,26.1180234 224.375723,25.9426117 223.148879,25.9426117 L223.148879,35.5803953 C223.148879,36.2815231 223.32429,36.7195335 223.586889,36.982132 C223.937712,37.1575438 224.638321,37.2452496 225.689754,37.2452496 L225.689754,37.7709658 L216.490499,37.7709658 L216.490499,37.2452496 C217.541413,37.2452496 218.154835,37.1575438 218.505139,36.982132 C218.855962,36.7195335 219.031374,36.2815231 219.031374,35.5803953 L219.031374,25.9426117 C217.777857,25.9426117 216.843342,26.1021134 216.227382,26.3446186 L216.227382,26.994044 L215.263655,26.994044 C215.243532,26.9417081 215.222483,26.8895573 215.200527,26.8376087 C214.488545,27.3301062 214.100573,28.0539045 214.036811,29.0092028 C213.686507,28.7466042 213.248496,29.0092028 213.248496,29.0092028 L213.248496,25.3297087 L214.263891,25.3297087 C213.854828,24.8428662 213.363683,24.3979864 212.810486,24.0151588 C211.583642,23.1391382 210.181905,22.7011279 208.517051,22.7011279 C207.377913,22.7011279 206.414705,22.9637265 205.713577,23.4017368 C205.01245,23.7525602 204.662145,24.2782763 204.662145,24.8911794 C204.662145,25.5923073 205.01245,26.1180234 205.625872,26.5560337 C206.326999,26.9063382 207.728736,27.4320543 209.918788,28.1331822 L212.547369,29.0092028 C213.686507,29.3600262 214.650233,29.7980365 215.351361,30.2360468 C216.577686,31.1120674 217.278814,32.1634997 217.278814,33.3898248 C217.278814,34.528963 216.577686,35.5803953 215.175949,36.6318276 C213.774213,37.6832599 211.583642,38.1212702 208.517051,38.1212702 C207.816442,38.1212702 207.027608,38.1212702 206.326999,38.0335644 C205.625872,37.9463775 204.924744,37.8586716 204.224135,37.6832599 L203.523007,37.5078482 C203.347595,37.4201423 203.260408,37.4201423 203.084997,37.4201423 C202.910104,37.4201423 202.822398,37.3329555 202.734692,37.3329555 C202.296682,37.3329555 202.12127,37.4201423 201.945859,37.5955541 C201.858672,37.6832599 201.68326,37.9463775 201.595554,38.1212702 L200.631828,38.1212702 L200.631828,32.5138042 L201.595554,32.5138042 C202.12127,34.1786585 203.084997,35.4926894 204.311841,36.1938173 C205.625872,36.982132 207.027608,37.4201423 208.692463,37.4201423 C210.269611,37.4201423 211.408749,37.1575438 212.109358,36.6318276 C212.72278,36.0184056 213.073085,35.4926894 213.073085,34.8797864 C213.073085,34.2663644 212.72278,33.6529424 212.021652,33.2149321 C211.583642,32.9523335 210.619916,32.60151 209.218179,32.1634997 L206.939903,31.375185 C204.749851,30.6740571 203.084997,29.9729293 202.208976,29.2723204 C201.620927,28.7427979 201.190728,28.1739884 200.971438,27.5392056 L195.199773,38.0335644 L194.586351,38.0335644 L188.102865,27.3443485 C187.839747,26.9063382 187.577148,26.5560337 187.226844,26.380622 C186.963726,26.2057293 186.525716,26.1180234 186,26.0303176 L186,25.5923073 L194.41094,25.5923073 L194.41094,26.1180234 C193.534919,26.1180234 192.921497,26.2057293 192.658898,26.2934351 C192.395781,26.2934351 192.308075,26.4683279 192.308075,26.8191513 C192.308075,26.9063382 192.308075,26.994044 192.308075,27.0817499 C192.308075,27.1694557 192.395781,27.1694557 192.395781,27.3443485 L196.251206,33.9160599 L196.426098,33.9160599 L199.668101,27.8705836 C199.755807,27.6951719 199.842994,27.607466 199.842994,27.4320543 C200.018406,27.2571616 200.018406,27.0817499 200.018406,26.9063382 C200.018406,26.5560337 199.842994,26.380622 199.580395,26.2934351 C199.317797,26.2057293 198.704375,26.1180234 197.915541,26.1180234 L197.915541,25.5923073 L200.979807,25.5923073 Z" id="vst"></path>
        </g>
    </g>
</svg>